<svg xmlns="http://www.w3.org/2000/svg" viewBox="0 0 32 32" role="img" aria-label="LibeRation">
  <circle cx="16" cy="16" r="16" fill="#1b2a4a"/>
  <path fill="none" stroke="#5eb0ff" stroke-width="1.6" stroke-linecap="round" d="M5 24.5c3.5-2.5 6.5-4 9.5-4.5"/>
  <path fill="none" stroke="#8ec8ff" stroke-width="1.2" stroke-linecap="round" d="M4 26.5c4-2.8 7.5-4.2 10.5-4.8"/>
  <path fill="#ffffff" d="M11.5 21.2c1.8-2.8 4.2-4.8 7-6.1-.6-1.3-.2-2.9 1.1-3.7 1.5-1 3.5-.6 4.4.8.6.9.7 2 .3 2.9 1.6.5 3 1.5 3.9 2.9-1.5-.2-2.9.3-4 1.2-.9.8-1.4 1.9-1.5 3.1-.9-.6-2-1-3.2-1.1-1.5-.1-2.9.4-4 1.2-.4-.1-.8-.2-1.2-.2-.9 0-1.6.7-1.6 1.6 0 .3.1.6.2.9-.2.1-.4.2-.6.4z"/>
  <path fill="#ffffff" d="M14.2 13.8c.4-.7 1.1-1.2 1.9-1.3.8-.1 1.6.2 2.1.8.5.6.6 1.4.3 2.1-.3.7-.9 1.2-1.6 1.4-.7.2-1.5 0-2.1-.5-.6-.5-.9-1.2-.8-1.9.1-.3.1-.5.2-.7z"/>
  <path fill="#ffffff" d="M16.8 11.5c.3-.4.8-.6 1.3-.6.5 0 1 .2 1.3.6.3.4.4.9.2 1.4-.2.5-.6.8-1.1.9-.5.1-1-.1-1.3-.5-.3-.4-.4-.9-.2-1.3.1-.2.2-.3.3-.5z"/>
  <circle cx="18.1" cy="12.1" r="0.45" fill="#1b2a4a"/>
</svg>
